<mxfile host="app.diagrams.net" modified="2022-09-10T22:26:42.227Z" agent="5.0 (Macintosh)" etag="22YVP7sTZSjLjTspf9HU" version="20.3.0" type="github">
  <diagram id="_8neWLug_MHTM9OuB9F4" name="Page-1">
    <mxGraphModel dx="1826" dy="1786" grid="1" gridSize="10" guides="1" tooltips="1" connect="1" arrows="1" fold="1" page="1" pageScale="1" pageWidth="850" pageHeight="1100" math="0" shadow="0">
      <root>
        <mxCell id="0" />
        <mxCell id="1" parent="0" />
        <mxCell id="AzYtHp3zfXlzIB5efai1-1" value="&lt;font style=&quot;font-size: 23px;&quot;&gt;Home&lt;/font&gt;" style="rounded=0;whiteSpace=wrap;html=1;" vertex="1" parent="1">
          <mxGeometry x="80" y="80" width="240" height="80" as="geometry" />
        </mxCell>
        <mxCell id="AzYtHp3zfXlzIB5efai1-2" value="Services" style="swimlane;fontStyle=0;childLayout=stackLayout;horizontal=1;startSize=30;horizontalStack=0;resizeParent=1;resizeParentMax=0;resizeLast=0;collapsible=1;marginBottom=0;" vertex="1" parent="1">
          <mxGeometry x="160" y="240" width="160" height="160" as="geometry" />
        </mxCell>
        <mxCell id="AzYtHp3zfXlzIB5efai1-3" value="Item 1" style="text;strokeColor=none;fillColor=none;align=left;verticalAlign=middle;spacingLeft=4;spacingRight=4;overflow=hidden;points=[[0,0.5],[1,0.5]];portConstraint=eastwest;rotatable=0;" vertex="1" parent="AzYtHp3zfXlzIB5efai1-2">
          <mxGeometry y="30" width="160" height="30" as="geometry" />
        </mxCell>
        <mxCell id="AzYtHp3zfXlzIB5efai1-4" value="Item 2" style="text;strokeColor=none;fillColor=none;align=left;verticalAlign=middle;spacingLeft=4;spacingRight=4;overflow=hidden;points=[[0,0.5],[1,0.5]];portConstraint=eastwest;rotatable=0;" vertex="1" parent="AzYtHp3zfXlzIB5efai1-2">
          <mxGeometry y="60" width="160" height="30" as="geometry" />
        </mxCell>
        <mxCell id="AzYtHp3zfXlzIB5efai1-5" value="Item 3" style="text;strokeColor=none;fillColor=none;align=left;verticalAlign=middle;spacingLeft=4;spacingRight=4;overflow=hidden;points=[[0,0.5],[1,0.5]];portConstraint=eastwest;rotatable=0;" vertex="1" parent="AzYtHp3zfXlzIB5efai1-2">
          <mxGeometry y="90" width="160" height="70" as="geometry" />
        </mxCell>
        <mxCell id="AzYtHp3zfXlzIB5efai1-6" value="" style="endArrow=none;html=1;rounded=0;exitX=0;exitY=0;exitDx=0;exitDy=0;" edge="1" parent="1" source="AzYtHp3zfXlzIB5efai1-2">
          <mxGeometry width="50" height="50" relative="1" as="geometry">
            <mxPoint x="220" y="210" as="sourcePoint" />
            <mxPoint x="160" y="160" as="targetPoint" />
          </mxGeometry>
        </mxCell>
        <mxCell id="AzYtHp3zfXlzIB5efai1-7" value="" style="endArrow=none;html=1;rounded=0;exitX=1;exitY=1;exitDx=0;exitDy=0;" edge="1" parent="1" source="AzYtHp3zfXlzIB5efai1-1">
          <mxGeometry width="50" height="50" relative="1" as="geometry">
            <mxPoint x="320" y="210" as="sourcePoint" />
            <mxPoint x="400" y="160" as="targetPoint" />
          </mxGeometry>
        </mxCell>
        <mxCell id="AzYtHp3zfXlzIB5efai1-8" value="" style="endArrow=none;html=1;rounded=0;exitX=0;exitY=0;exitDx=0;exitDy=0;" edge="1" parent="1" source="AzYtHp3zfXlzIB5efai1-9">
          <mxGeometry width="50" height="50" relative="1" as="geometry">
            <mxPoint x="400" y="230" as="sourcePoint" />
            <mxPoint x="400" y="160" as="targetPoint" />
          </mxGeometry>
        </mxCell>
        <mxCell id="AzYtHp3zfXlzIB5efai1-9" value="Social Media" style="swimlane;fontStyle=0;childLayout=stackLayout;horizontal=1;startSize=30;horizontalStack=0;resizeParent=1;resizeParentMax=0;resizeLast=0;collapsible=1;marginBottom=0;" vertex="1" parent="1">
          <mxGeometry x="400" y="240" width="160" height="160" as="geometry" />
        </mxCell>
        <mxCell id="AzYtHp3zfXlzIB5efai1-10" value="Item 1" style="text;strokeColor=none;fillColor=none;align=left;verticalAlign=middle;spacingLeft=4;spacingRight=4;overflow=hidden;points=[[0,0.5],[1,0.5]];portConstraint=eastwest;rotatable=0;" vertex="1" parent="AzYtHp3zfXlzIB5efai1-9">
          <mxGeometry y="30" width="160" height="30" as="geometry" />
        </mxCell>
        <mxCell id="AzYtHp3zfXlzIB5efai1-11" value="Item 2" style="text;strokeColor=none;fillColor=none;align=left;verticalAlign=middle;spacingLeft=4;spacingRight=4;overflow=hidden;points=[[0,0.5],[1,0.5]];portConstraint=eastwest;rotatable=0;" vertex="1" parent="AzYtHp3zfXlzIB5efai1-9">
          <mxGeometry y="60" width="160" height="30" as="geometry" />
        </mxCell>
        <mxCell id="AzYtHp3zfXlzIB5efai1-12" value="Item 3" style="text;strokeColor=none;fillColor=none;align=left;verticalAlign=middle;spacingLeft=4;spacingRight=4;overflow=hidden;points=[[0,0.5],[1,0.5]];portConstraint=eastwest;rotatable=0;" vertex="1" parent="AzYtHp3zfXlzIB5efai1-9">
          <mxGeometry y="90" width="160" height="70" as="geometry" />
        </mxCell>
        <mxCell id="AzYtHp3zfXlzIB5efai1-13" value="" style="endArrow=none;html=1;rounded=0;entryX=1;entryY=1;entryDx=0;entryDy=0;" edge="1" parent="1" target="AzYtHp3zfXlzIB5efai1-1">
          <mxGeometry width="50" height="50" relative="1" as="geometry">
            <mxPoint x="640" y="160" as="sourcePoint" />
            <mxPoint x="460" y="450" as="targetPoint" />
          </mxGeometry>
        </mxCell>
        <mxCell id="AzYtHp3zfXlzIB5efai1-14" value="" style="endArrow=none;html=1;rounded=0;" edge="1" parent="1">
          <mxGeometry width="50" height="50" relative="1" as="geometry">
            <mxPoint x="640" y="240" as="sourcePoint" />
            <mxPoint x="640" y="160" as="targetPoint" />
          </mxGeometry>
        </mxCell>
        <mxCell id="AzYtHp3zfXlzIB5efai1-15" value="Web3" style="swimlane;startSize=23;" vertex="1" parent="1">
          <mxGeometry x="640" y="240" width="160" height="160" as="geometry" />
        </mxCell>
        <mxCell id="AzYtHp3zfXlzIB5efai1-16" value="MP4" style="rhombus;whiteSpace=wrap;html=1;fontSize=23;" vertex="1" parent="1">
          <mxGeometry x="160" y="480" width="160" height="80" as="geometry" />
        </mxCell>
        <mxCell id="AzYtHp3zfXlzIB5efai1-17" value="IMG2" style="rhombus;whiteSpace=wrap;html=1;fontSize=23;" vertex="1" parent="1">
          <mxGeometry x="160" y="640" width="160" height="80" as="geometry" />
        </mxCell>
        <mxCell id="AzYtHp3zfXlzIB5efai1-18" value="" style="endArrow=none;html=1;rounded=0;fontSize=23;entryX=0.498;entryY=1.037;entryDx=0;entryDy=0;entryPerimeter=0;exitX=0.5;exitY=0;exitDx=0;exitDy=0;" edge="1" parent="1" source="AzYtHp3zfXlzIB5efai1-16" target="AzYtHp3zfXlzIB5efai1-5">
          <mxGeometry width="50" height="50" relative="1" as="geometry">
            <mxPoint x="230" y="460" as="sourcePoint" />
            <mxPoint x="280" y="410" as="targetPoint" />
          </mxGeometry>
        </mxCell>
        <mxCell id="AzYtHp3zfXlzIB5efai1-19" value="" style="endArrow=none;html=1;rounded=0;fontSize=23;entryX=0.5;entryY=1;entryDx=0;entryDy=0;exitX=0.5;exitY=0;exitDx=0;exitDy=0;" edge="1" parent="1" source="AzYtHp3zfXlzIB5efai1-17" target="AzYtHp3zfXlzIB5efai1-16">
          <mxGeometry width="50" height="50" relative="1" as="geometry">
            <mxPoint x="410" y="500" as="sourcePoint" />
            <mxPoint x="460" y="450" as="targetPoint" />
          </mxGeometry>
        </mxCell>
        <mxCell id="AzYtHp3zfXlzIB5efai1-20" value="" style="endArrow=none;html=1;rounded=0;fontSize=23;entryX=0.5;entryY=1;entryDx=0;entryDy=0;" edge="1" parent="1" target="AzYtHp3zfXlzIB5efai1-17">
          <mxGeometry width="50" height="50" relative="1" as="geometry">
            <mxPoint x="240" y="800" as="sourcePoint" />
            <mxPoint x="270" y="730" as="targetPoint" />
          </mxGeometry>
        </mxCell>
        <mxCell id="AzYtHp3zfXlzIB5efai1-21" value="IMG2" style="rhombus;whiteSpace=wrap;html=1;fontSize=23;" vertex="1" parent="1">
          <mxGeometry x="160" y="800" width="160" height="80" as="geometry" />
        </mxCell>
      </root>
    </mxGraphModel>
  </diagram>
</mxfile>
